<?xml version="1.0" encoding="utf-8"?>
<!-- Generator: Adobe Illustrator 21.1.0, SVG Export Plug-In . SVG Version: 6.00 Build 0)  -->
<svg version="1.1" id="Layer_7" xmlns="http://www.w3.org/2000/svg" xmlns:xlink="http://www.w3.org/1999/xlink" x="0px" y="0px"
	 viewBox="0 0 5852.8 5478" style="enable-background:new 0 0 5852.8 5478;" xml:space="preserve">
<g>
	<g>
		<path d="M116.5,3534.8c16.8-7.4,34.9-13.8,50-24.2c15.3-10.5,30.5-21,45.8-31.5c37.7-25.9,71.3-56.3,105.5-86.5
			c57.7-50.9,113.5-103.1,168.7-156.7c110.1-106.9,218.9-215,327.2-323.7c216.5-217.4,431.9-435.9,646.4-655.4
			c214.5-219.6,427.6-440.2,639.3-662.5c211.7-222.3,419.9-448.1,629.1-672.7c104.8-112.6,204.9-229,305.6-345.3
			c100.7-116.3,201.3-232.6,302-348.9c25.2-29.1,50.3-58.2,75.5-87.2c28.2-32.6,34.4-85,0-116.7c-34-31.2-82.8-31.3-116.7,0
			c-112.7,104.3-225.4,208.5-338.1,312.8c-56.3,52.1-112.7,104.3-169,156.4c-57.1,52.8-115.6,104.5-170.8,159.5
			c-217.4,216.5-436.9,431-651.9,649.9c-215.8,219.8-431.1,440-644.1,662.4c-212.3,221.7-424.3,443.6-634.5,667.3
			c-105.1,111.9-210.9,223.2-314.1,336.8c-51.6,56.8-104.3,112.8-154.9,170.5c-25.4,28.9-49.1,59.4-73.6,89.1
			c-29.1,35.2-58.5,69.8-83.1,108.4c-9.4,14.8-19.5,29.3-28.3,44.4c-12.1,20.5-19.9,44.8-28.8,67c-11.3,28,5.8,64,27.5,80.8
			C57.4,3549,87.3,3547.7,116.5,3534.8L116.5,3534.8z"/>
	</g>
</g>
<g>
	<g>
		<path d="M3286.9,48.7c-11.1,20.5-22,40.4-31,61.9c-4,9.5-7.9,19-11.9,28.5c1.1-2.6,2.2-5.1,3.2-7.7
			c-10.1,17.4-15.2,36.2-15.2,56.3c-4.1,45.8-7,91.8-10.5,137.7c-6.6,86.1-6.3,173.2-9,259.5c-5.4,174.8-6.6,349.5-7.6,524.3
			c-1.8,346-3.8,692.1-4.2,1038.1c-0.9,692-7.1,1384.3,5.1,2076.2c3.4,194.3,13.4,388.5,21.3,582.6c3.9,95.3,6.5,190.7,9.6,286
			c3.1,98.9,11.6,197.8,17.9,296.6c3,46.4,38.9,91.3,89.1,89.1c50.8-2.3,85.9-39.2,89.1-89.1c44.2-694.6,55.7-1390.9,55.3-2086.8
			c-0.4-692.1-1.4-1384.1-5.1-2076.2c-1-194.2-0.4-388.5-6.4-582.6c-2.9-95.3-4.8-190.7-8.8-286c-2.1-49.5-7.1-98.9-10.9-148.3
			c-1.3-16.4-1.3-35.3-5.6-50.8c-12.3-29.2-15-35.5-8-19c-2.6-6.3-5.3-12.7-7.9-19c-10.4-24.8-22.2-47.9-35-71.4
			C3377.1,6,3310.1,6,3286.9,48.7L3286.9,48.7z"/>
	</g>
</g>
<g>
	<g>
		<path d="M823.6,2490c18.7,2.9,37.4,5.8,56.2,8.7c9.4,1.4,18.7,2.8,28.1,4.3c-1.9-1.3-3.7-2.7-5.6-4c4.9,2.7,9.9,5.4,14.8,8.1
			c50.1,27.6,105.4,32,161.7,37c78.1,7,155.8,11.3,234.2,14.1c159.4,5.6,318.6,7.7,478.1,9.6c318.7,3.9,637.4,7.5,956.2,8.4
			c637.4,1.7,1274.9,5.2,1912.3-0.9c178.9-1.7,357.8-4.9,536.6-7.4c87.9-1.2,175.6-3.3,263.4-7.1c91.7-4,182.1-15.9,273.2-26.8
			c32.9-3.9,60.5-10.8,84.9-35.1c20.8-20.8,36.5-55,35.1-84.9c-1.4-31-11.6-63.2-35.1-84.9c-25-22.9-51.4-31.1-84.9-35.1
			c-81.1-9.7-162.3-22-243.9-25.5c-78.1-3.4-156-6.5-234.2-7.5c-159.4-2.2-318.7-4.4-478.1-6.5c-318.6-4.4-637.5-5.4-956.2-5.4
			c-637.5,0.1-1274.9,2.1-1912.3,9.8c-178.9,2.2-357.8,2.7-536.6,9c-88,3.1-175.7,5.7-263.4,13.5c-58,5.2-123.3,4.8-176.2,31.5
			c-7.5,3.8-14.5,8.6-22.1,12.2c-9.2,5.4-9.8,5.4-1.8,0c-6.2,1-12.5,1.9-18.7,2.9c-21.8,3.4-43.7,6.7-65.5,10.1
			c-32.4,5-59.2,44.5-57.8,75.9C767.2,2445.9,788.8,2484.6,823.6,2490L823.6,2490z"/>
	</g>
</g>
<g>
	<g>
		<path d="M5183,40.6c-11.3,20.8-26.2,42.9-32.6,65.7c-5.5,19.4-7.3,40.7-10.8,60.6c-9.4,52.6-14.7,105.3-19.7,158.5
			c-8.1,86.4-10.9,172.8-14.4,259.5c-6.9,174.6-8.5,349.6-12.5,524.3c-7.9,345.7-6.2,692.3-7.3,1038.1
			c-1.1,346,1.2,692.1,1.8,1038.1c0.3,173,0.6,346,0.9,519.1c0.1,84.6-1.4,169.6,1.2,254.2c2.7,88.3,8.9,176.6,13.4,264.8
			c4.8,95.9,14.8,190.6,25.4,286c10.9,98.6,17.4,197.8,25.7,296.6c16.3,194,27,388.3,38.6,582.6c4.7,78.3,117.2,78.5,121.9,0
			c20.9-350.3,44.5-699.8,83-1048.7c9.3-84,9.3-169.8,13.6-254.2c4.5-88.4,6.8-176.3,7.2-264.8c0.8-173,0.8-346,1.1-519.1
			c1.2-692.1,0.5-1384.1-4-2076.2c-1.3-194.2-7.6-388.4-12-582.6c-2.2-95.2-4.3-191.2-13.2-286c-5.3-56.8-9-114-19.1-170.1
			c-4.2-23.5-7.3-47.4-12.6-70.7c-6.3-27.5-21.1-51.2-34.4-75.8C5295.1-12.4,5211.8-12.4,5183,40.6L5183,40.6z"/>
	</g>
</g>
</svg>
