<?xml version="1.0" encoding="utf-8"?>
<!-- Generator: Adobe Illustrator 21.1.0, SVG Export Plug-In . SVG Version: 6.00 Build 0)  -->
<svg version="1.1" id="Layer_7" xmlns="http://www.w3.org/2000/svg" xmlns:xlink="http://www.w3.org/1999/xlink" x="0px" y="0px"
	 viewBox="0 0 8503.9 8503.9" style="enable-background:new 0 0 8503.9 8503.9;" xml:space="preserve">
<g>
	<g>
		<path d="M1186.9,4873.4c124.3-91,231.6-204.8,340-313.8c108.2-108.8,215.9-218.1,323.3-327.6c214.8-219.2,429.1-438.8,642.9-658.9
			c213.9-220.1,427.1-440.8,639.7-662.1c212.6-221.3,423.6-444.3,635.1-666.7c211.6-222.5,417.5-450.4,625.4-676.4
			c26-28.3,52-56.5,78-84.8c32.3-35.1-18.3-86.2-52.5-52.5c-109.4,107.6-218.8,215.2-328.2,322.7
			c-109.3,107.5-220.3,213.7-327.9,323c-215.2,218.7-431.3,436.6-645.4,656.4c-214.1,219.8-428,439.9-640.9,660.9
			c-212.9,221.1-425.6,442.2-637.6,664.2c-106,111-212.3,221.7-317.4,333.5c-52.6,55.9-105.3,111.7-157.7,167.7
			c-52.3,55.9-104.9,112.8-153.1,172.4c-24.9,30.8-48.8,61.6-71.2,94.4C1120.7,4853.8,1159,4893.9,1186.9,4873.4L1186.9,4873.4z"/>
	</g>
</g>
<g>
	<g>
		<path d="M4406.8,1449.1c-9,40.9-19.6,82.5-22.1,124.4c-2.7,45.8-3.4,91.9-4.7,137.7c-2.5,84.7-2.6,169.5-3.8,254.2
			c-2.4,173-2.9,346-3.3,519.1c-0.8,346-1.7,692.1-1.9,1038.1c-0.4,692-3.2,1384.2,2.3,2076.2c3.1,388.4,10.8,777,21.9,1165.2
			c1.5,51.6,78.7,51.6,80.2,0c19.8-691.9,24.6-1384.1,24.9-2076.2c0.3-692.1-0.6-1384.1-2.3-2076.2c-0.5-194.2,0-388.4-2.7-582.6
			c-1.3-95.3-2.7-190.7-4-286c-0.7-49.4-3-98.9-4.7-148.3c-1.7-49.6-12.2-97.2-22.8-145.6C4457.6,1421,4413,1420.9,4406.8,1449.1
			L4406.8,1449.1z"/>
	</g>
</g>
<g>
	<g>
		<path d="M1936.2,3824.7c38,2.6,76.7,3,114,11.3c42.6,9.5,86.5,10.4,130,12.2c78.1,3.1,156,4.9,234.2,6.1
			c159.4,2.5,318.7,3.4,478.1,4.2c318.7,1.7,637.4,3.3,956.2,3.7c634.2,0.8,1268.4,2.3,1902.6-0.4c357.8-1.5,715.9,0.7,1073.3-18.5
			c69.4-3.7,69.6-104.2,0-108c-318.5-17.2-637.2-15.9-956.2-17.8c-318.7-2-637.5-2.4-956.2-2.4c-634.2,0-1268.4,0.9-1902.6,4.4
			c-178.9,1-357.8,1.1-536.6,4c-87.8,1.4-175.7,2.3-263.4,5.9c-46.6,1.9-94.8,1.2-140.9,9.2c-21.7,3.8-41.9,9.2-64,10.7
			c-22.8,1.6-45.5,3.1-68.3,4.7C1890.7,3756.9,1890.6,3821.5,1936.2,3824.7L1936.2,3824.7z"/>
	</g>
</g>
<g>
	<g>
		<path d="M6309.8,1447.2c-19.1,86.8-21.4,175.4-25.2,264c-3.6,84.7-4.6,169.5-6.1,254.2c-3.2,173-3.7,346-5.5,519.1
			c-3.6,346-2.8,692.1-3.3,1038.1c-0.5,346,0.5,692.1,0.8,1038.1c0.3,346.1-0.9,692.1,6.9,1038.1c4.4,194.3,15.6,388.4,23,582.6
			c7.3,194.2,12.1,388.4,17.4,582.6c0.9,35.3,53.9,35.3,54.8,0c9.3-346.2,19.6-692.2,36.8-1038.1c17.2-345.4,10.1-692.4,10.4-1038.1
			c0.5-692.1,0.3-1384.1-1.8-2076.2c-0.6-194.2-3.3-388.4-5.3-582.6c-1-95.3-1.6-190.8-5.6-286c-4.2-99-5.2-198.7-26.5-295.8
			C6372.9,1412.2,6317.4,1412.2,6309.8,1447.2L6309.8,1447.2z"/>
	</g>
</g>
</svg>
